HIERARCHY
ROOT Hips
{
 OFFSET 0.000000 0.000000 0.000000
 CHANNELS 6 Xposition Yposition Zposition Yrotation Xrotation Zrotation
 JOINT Chest
 {
  OFFSET 0.000000 9.585900 0.002600
  CHANNELS 3 Yrotation Xrotation Zrotation
  JOINT Chest2
  {
   OFFSET 0.000000 9.601200 -0.005300
   CHANNELS 3 Yrotation Xrotation Zrotation
   JOINT Chest3
   {
    OFFSET 0.000000 9.561800 0.000000
    CHANNELS 3 Yrotation Xrotation Zrotation
    JOINT Chest4
    {
     OFFSET 0.000000 9.552100 0.000000
     CHANNELS 3 Yrotation Xrotation Zrotation
     JOINT Neck
     {
      OFFSET 0.000000 14.453000 0.000000
      CHANNELS 3 Yrotation Xrotation Zrotation
      JOINT Head
      {
       OFFSET 0.000000 8.936500 -0.011300
       CHANNELS 3 Yrotation Xrotation Zrotation
       End Site
       {
        OFFSET 0.000000 17.073600 -0.006000
       }
      }
     }
     JOINT RightCollar
     {
      OFFSET -2.921100 9.558500 0.000000
      CHANNELS 3 Yrotation Xrotation Zrotation
      JOINT RightShoulder
      {
       OFFSET -13.519700 0.000000 0.000000
       CHANNELS 3 Yrotation Xrotation Zrotation
       JOINT RightElbow
       {
        OFFSET 0.000000 -29.696600 0.000000
        CHANNELS 3 Yrotation Xrotation Zrotation
        JOINT RightWrist
        {
         OFFSET 0.000000 -24.004700 0.000000
         CHANNELS 3 Yrotation Xrotation Zrotation
         End Site
         {
          OFFSET 0.000000 -17.728500 0.000000
         }
        }
       }
      }
     }
     JOINT LeftCollar
     {
      OFFSET 2.921100 9.558500 0.000000
      CHANNELS 3 Yrotation Xrotation Zrotation
      JOINT LeftShoulder
      {
       OFFSET 13.519700 0.000000 0.000000
       CHANNELS 3 Yrotation Xrotation Zrotation
       JOINT LeftElbow
       {
        OFFSET 0.000000 -29.696600 0.000000
        CHANNELS 3 Yrotation Xrotation Zrotation
        JOINT LeftWrist
        {
         OFFSET 0.000000 -24.004700 0.000000
         CHANNELS 3 Yrotation Xrotation Zrotation
         End Site
         {
          OFFSET 0.000000 -17.728500 0.000000
         }
        }
       }
      }
     }
    }
   }
  }
 }
 JOINT RightHip
 {
  OFFSET -7.771700 -0.012900 -0.001300
  CHANNELS 3 Yrotation Xrotation Zrotation
  JOINT RightKnee
  {
   OFFSET 0.000000 -40.869800 0.001200
   CHANNELS 3 Yrotation Xrotation Zrotation
   JOINT RightAnkle
   {
    OFFSET 0.000000 -39.717900 0.002100
    CHANNELS 3 Yrotation Xrotation Zrotation
    JOINT RightToe
    {
     OFFSET 0.000000 -4.965400 11.033500
     CHANNELS 3 Yrotation Xrotation Zrotation
     End Site
     {
      OFFSET 0.000000 -1.423100 5.872300
     }
    }
   }
  }
 }
 JOINT LeftHip
 {
  OFFSET 7.771700 -0.012900 -0.001300
  CHANNELS 3 Yrotation Xrotation Zrotation
  JOINT LeftKnee
  {
   OFFSET 0.000000 -40.869800 0.001200
   CHANNELS 3 Yrotation Xrotation Zrotation
   JOINT LeftAnkle
   {
    OFFSET 0.000000 -39.717900 0.002100
    CHANNELS 3 Yrotation Xrotation Zrotation
    JOINT LeftToe
    {
     OFFSET 0.000000 -4.965400 11.033500
     CHANNELS 3 Yrotation Xrotation Zrotation
     End Site
     {
      OFFSET 0.000000 -1.423100 5.872300
     }
    }
   }
  }
 }
}
MOTION
Frames: 5
Frame Time: 0.008333
0.000000 85.388000 0.000000 0.000000 -5.767877 0.000000 0.000000 11.653817 0.000000 0.000000 -5.885947 0.000000 0.000000 -0.000000 0.000000 0.000000 -0.000000 0.000000 0.000000 12.528835 0.000000 0.000000 0.711642 0.000000 0.000000 -0.000000 0.000000 0.000000 0.000000 -90.000000 0.000000 -2.309062 0.000000 0.000000 2.309062 0.000000 0.000000 -0.000000 0.000000 0.000000 -0.000000 90.000000 0.000000 -2.309062 0.000000 0.000000 2.309062 0.000000 0.000000 8.520406 0.000000 0.000000 1.905762 0.000000 -0.000000 -4.658285 0.000000 0.000000 -0.000000 0.000000 0.000000 8.520406 0.000000 0.000000 1.905762 0.000000 -0.000000 -4.658285 0.000000 0.000000 -0.000000 0.000000
-19.035312 58.328482 71.273331 179.348350 -33.361826 -1.190174 1.021658 21.025176 4.359632 0.034879 2.821120 0.432554 0.069607 4.597347 0.706588 0.622263 18.017412 2.886318 1.675308 17.513305 -1.736930 3.670763 -3.192065 -3.763802 7.642706 0.097324 -1.855432 19.560115 -24.241790 -18.713084 17.546285 -49.755606 14.725674 17.892471 0.999699 -33.315239 -9.309152 -5.454126 -6.383160 -9.850371 -40.266585 4.253931 154.800776 -56.539004 173.476821 -11.399995 -1.858955 26.672112 10.451700 -36.830277 -7.953188 -5.301629 66.951409 -5.040467 3.697173 6.311287 8.655040 -0.037916 0.096072 -0.014342 -6.952143 -42.832787 -0.430478 27.091506 59.234660 24.598418 -9.725078 33.259525 1.464125 0.138231 -16.180346 -4.078790
-19.037354 58.330059 71.271320 179.346415 -33.360900 -1.193822 1.026242 21.023115 4.365035 0.031270 2.818934 0.435466 0.069203 4.595029 0.708311 0.623497 18.020411 2.884579 1.675495 17.515231 -1.730244 3.674847 -3.185558 -3.761371 7.641172 0.102123 -1.855869 19.562066 -24.242416 -18.715374 17.553372 -49.756746 14.714296 17.890840 0.998211 -33.309877 -9.309156 -5.457211 -6.392408 -9.864058 -40.263298 4.266970 154.807923 -56.538769 173.473894 -11.397894 -1.851666 26.655504 10.446436 -36.828658 -7.944296 -5.302404 66.948710 -5.046161 3.696138 6.306772 8.654643 -0.036991 0.099533 -0.011878 -6.940543 -42.830040 -0.439217 27.105857 59.229753 24.627215 -9.738532 33.245092 1.456633 0.140689 -16.171599 -4.078371
-19.040320 58.332171 71.268738 179.346144 -33.360584 -1.197744 1.014692 21.022621 4.369469 0.040446 2.819648 0.431846 0.062899 4.593610 0.710946 0.630169 18.021180 2.884296 1.674218 17.515982 -1.729795 3.680373 -3.185286 -3.754507 7.641301 0.106212 -1.857682 19.550714 -24.240301 -18.710027 17.565854 -49.765615 14.703066 17.899876 0.999636 -33.304029 -9.308703 -5.458608 -6.405109 -9.872904 -40.262712 4.279343 154.809475 -56.532564 173.469952 -11.403095 -1.845931 26.645932 10.440926 -36.825949 -7.934379 -5.304485 66.946699 -5.056949 3.694910 6.303097 8.658874 -0.036609 0.101157 -0.011005 -6.926675 -42.828097 -0.451856 27.119902 59.227432 24.654584 -9.735920 33.233863 1.462098 0.137132 -16.166770 -4.080483
-19.044862 58.334844 71.265502 179.345053 -33.361984 -1.197029 1.004186 21.022808 4.369265 0.046479 2.820749 0.429006 0.054923 4.593309 0.714161 0.625474 18.020339 2.883161 1.682747 17.517929 -1.734043 3.685531 -3.185135 -3.754393 7.655306 0.113468 -1.861564 19.540945 -24.240099 -18.706319 17.574965 -49.772568 14.693857 17.899802 1.017482 -33.307913 -9.291862 -5.454509 -6.423107 -9.882242 -40.265139 4.290712 154.807657 -56.522865 173.465732 -11.424896 -1.835299 26.641214 10.435486 -36.821130 -7.932869 -5.296721 66.945765 -5.054659 3.693734 6.299243 8.657860 -0.033589 0.102188 -0.009776 -6.905426 -42.819506 -0.472689 27.131413 59.223239 24.677585 -9.727149 33.199696 1.477338 0.128572 -16.143422 -4.085777
